<svg width="311" height="448" viewBox="0 0 311 448" fill="none" xmlns="http://www.w3.org/2000/svg">
<path d="M81.9614 33.4254L166.565 3.17131L254.057 27.214L254.057 51.9968C254.429 56.3332 256.109 58.7872 255.486 62.5951L251.955 62.5951C252.482 58.4377 252.98 56.1194 254.057 51.9968L254.057 27.214L170.103 56.1697L112.905 41.4101L111.03 40.9262L81.9614 33.4254Z" fill="#1E1348"/>
<path d="M118.807 84.7666L125.806 51.3933C142.654 56.1009 152.084 58.6826 168.71 62.5951C186.137 56.1652 195.079 53.2505 210.694 48.3295L219.14 84.7666C190.425 78.0967 170.103 75.575 118.807 84.7666Z" fill="#1E1348"/>
<path d="M254.057 27.214L166.565 3.17131L81.9614 33.4254L111.03 40.9262L112.905 41.4101L170.103 56.1697L254.057 27.214ZM254.057 27.214C254.057 36.8923 254.057 42.3185 254.057 51.9968M254.057 51.9968C254.429 56.3332 256.109 58.7872 255.486 62.5951L251.955 62.5951C252.482 58.4377 252.98 56.1194 254.057 51.9968ZM125.806 51.3933L118.807 84.7666C170.103 75.575 190.425 78.0967 219.14 84.7666L210.694 48.3295C195.079 53.2505 186.137 56.1652 168.71 62.5951C152.084 58.6826 142.654 56.1009 125.806 51.3933Z" stroke="#2C2D42" stroke-width="2"/>
<path d="M296.923 307.09C296.923 376.972 233.852 433.623 156.049 433.623C78.2472 433.623 14.3325 376.128 14.3325 306.246C14.3325 236.364 77.4036 179.713 155.206 179.713C233.008 179.713 296.923 237.208 296.923 307.09Z" fill="#1E1348"/>
<path d="M231.975 194.391C259.488 210.482 279.021 231.075 292.779 257.609C304.966 284.594 307.069 314.307 298.768 342.228C290.468 370.15 272.219 394.753 246.796 412.294C221.374 429.836 190.169 439.357 157.928 439.409C125.687 439.46 94.1741 430.04 68.1823 412.581C42.1905 395.122 23.142 370.579 13.934 342.686C4.7261 314.792 5.86255 285.074 17.1705 258.051C28.4785 231.029 55.767 202.515 83.5044 189.414L81.3955 199.115C55.6861 213.46 35.6341 235.261 24.9618 260.765C14.2895 286.268 13.217 314.316 21.9073 340.641C30.5976 366.967 48.5752 390.13 73.1059 406.608C97.6365 423.085 127.378 431.976 157.806 431.927C188.235 431.878 217.685 422.892 241.679 406.337C265.672 389.781 282.896 366.562 290.729 340.21C298.563 313.858 296.578 285.815 285.077 260.347C269.578 227.883 243.039 209.598 234.143 203.301C225.247 197.004 226.374 193.438 223.956 189.836L231.975 194.391Z" fill="#676262"/>
<path d="M262.337 170.856C260.228 164.107 258.024 161.109 252.215 155.672C250.169 154.924 249.319 154.898 249.684 157.359C255.167 164.107 257.366 166.244 259.385 171.699C261.494 179.291 262.258 180.655 262.337 186.462C263.988 181.586 264.446 179.291 262.337 170.856Z" fill="white" stroke="white"/>
<path d="M105.015 122.846L85.6134 135.499L94.0489 123.689L102.906 113.567L123.152 94.5869C120.033 105.547 116.93 110.944 107.124 118.206L114.294 114.832C108.456 133.34 103.908 142.866 92.7836 157.853L99.532 154.479L97.4232 165.445C94.5347 178.211 93.0934 185.549 88.5659 196.657C87.4425 209.701 83.688 215.262 78.0214 225.759C83.0018 221.771 84.6789 219.455 86.0352 215.215C85.8544 231.913 82.8134 239.35 77.5997 252.753L75.4908 270.046L78.0214 267.937L82.661 266.25L90.6747 267.937L111.342 277.638L122.308 289.448L129.478 313.911L137.914 297.883L146.771 326.564L155.207 313.911L170.39 329.516L175.03 348.074L187.262 317.285L184.309 289.448H189.37H199.071L209.194 293.244L212.146 289.448L214.255 281.012V267.937C210.743 262.625 208.179 258.581 203.289 252.753C209.173 257.074 214.265 259.811 218.473 265.828C219.317 274.685 221.436 286.195 223.113 299.148L219.317 293.244L216.786 288.604L214.255 289.448L216.786 301.679L215.942 317.285L210.881 299.148C207.507 296.618 205.398 296.196 202.867 294.087C197.112 293.286 195.088 293.476 191.058 294.087V295.352C194.669 309.395 195.499 317.036 191.058 329.516C185.146 343.688 179.873 352.301 169.547 364.102L169.969 350.605L165.751 336.687L155.207 320.659L144.24 338.795L136.648 305.053L129.478 336.687L122.308 324.033L116.403 299.148L115.138 290.291L111.342 283.543L90.6747 272.155L80.1303 270.468L72.5384 276.373V259.08L75.4908 243.052L79.7086 228.29L71.6948 232.086L63.2593 241.365C64.4204 236.145 65.6396 233.411 69.5859 229.134L77.5997 217.746L86.0352 192.861L91.9401 167.976L74.2255 184.003L105.015 122.846Z" fill="#DDDBDB" stroke="#CACACB" stroke-width="2"/>
<path d="M251.353 142.512L246.979 134.786C244.006 132.429 242.01 132.889 238.23 134.786C235.751 138.909 234.373 141.503 231.97 147.309L220.582 155.745C217.705 162.46 218.902 160.703 215.942 167.132C210.037 173.037 204.142 172.875 193.026 171.098C187.234 169.653 181.357 169.663 175.874 171.098C171.656 173.037 171.176 174.927 175.874 181.051C177.261 183.069 188.949 183.582 199.588 185.269C210.228 186.956 224.377 186.55 224.377 186.55C236.577 188.661 242.384 190.214 246.979 195.049C247.908 192.087 247.941 188.114 246.979 184.425L251.353 186.55L258.644 205.092C275.44 177.066 273.873 162.149 251.353 142.512Z" fill="#82580F"/>
<path d="M251.353 186.55L258.644 205.092C275.44 177.066 273.873 162.149 251.353 142.512L246.979 134.786C244.006 132.429 242.01 132.889 238.23 134.786C235.751 138.909 234.373 141.503 231.97 147.309L220.582 155.745C217.705 162.46 218.902 160.703 215.942 167.132C210.037 173.037 204.142 172.875 193.026 171.098C187.234 169.653 181.357 169.663 175.874 171.098C171.656 173.037 171.176 174.927 175.874 181.051C177.261 183.069 188.949 183.582 199.588 185.269C210.228 186.956 224.377 186.55 224.377 186.55C236.577 188.661 242.384 190.214 246.979 195.049C247.908 192.087 247.941 188.114 246.979 184.425L251.353 186.55ZM251.353 186.55C245.266 182.292 239.782 180.483 224.377 178.824H199.588C194.269 178.453 191.416 178.47 184.277 174.961" stroke="black" stroke-width="3"/>
<path d="M253.48 115.676C254.788 120.388 254.745 125.798 248.419 133.39C242.898 133.178 242.039 132.654 239.14 134.234C234.925 139.208 234.086 142.411 231.63 147.309C226.781 150.904 220.664 153.214 218.977 159.54C217.29 165.867 214.42 170.379 208.011 171.772C201.602 173.165 202.527 171.772 184.391 170.085C166.255 168.398 170.555 180.629 184.391 183.16C198.227 185.691 226.131 187.005 225.725 187.8C235.41 208.454 240.042 221.725 241.331 233.773C235.996 226.777 231.411 222.988 220.242 216.48C229.071 231.44 234.015 244.489 237.113 262.454C231.556 256.854 227.283 249.644 220.242 244.739C227.916 260.631 230.654 269.778 232.895 286.495C228.769 281.954 226.095 278.507 220.242 269.624C220.667 280.969 222.14 288.361 226.569 303.788C221.006 298.255 217.812 295.403 216.554 291.532C220.628 311.668 217.307 317.949 214.866 322.565L214.759 322.768C213.103 299.913 207.154 294.038 193.248 295.352C200.066 321.252 194.25 337.447 167.52 369.163C169.795 349.8 168.68 339.589 155.289 324.455C148.739 330.754 146.739 335.957 143.479 345.544C141.384 334.171 141.84 324.645 137.152 311.802C132.782 323.66 131.053 330.308 130.404 342.17C102.143 289.446 125.682 293.47 101.219 279.747C83.9259 270.046 79.0362 269.369 70.9332 281.434C69.3491 263.187 70.8723 249.621 77.2599 230.821C70.1382 232.995 65.1926 240.114 61.6542 246.426C61.2439 238.193 62.0759 233.351 70.9332 224.494C79.7906 215.637 88.6479 173.881 88.6479 173.881C84.071 178.41 80.0133 181.827 70.9332 187.799C81.5218 166.259 88.3033 152.523 100.458 127.907C95.0633 131.282 90.8199 133.88 81.8994 139.295C91.0578 121.703 101.391 111.558 122.39 93.3216C114.461 97.909 110.236 100.186 102.988 103.866C117.329 82.3554 153.422 80.8176 181.439 84.4642C173.347 78.9144 154.135 79.6611 144.744 78.5594C149.384 76.4504 173.003 70.5455 210.119 89.9474C206.058 84.3109 199.588 81.1071 186.922 75.1853C195.012 74.2724 208.775 82.0739 225.725 93.3216C223.566 88.806 221.9 86.3565 216.868 82.3554C221.697 82.8174 226.232 85.1978 238.378 94.1651C251.705 110.261 251.638 113.181 253.48 115.676Z" fill="white"/>
<path d="M248.419 133.39C254.745 125.798 254.788 120.388 253.48 115.676C251.638 113.181 251.705 110.261 238.378 94.1651C226.232 85.1978 221.697 82.8174 216.868 82.3554C221.9 86.3565 223.566 88.806 225.725 93.3216C208.775 82.0739 195.012 74.2724 186.922 75.1853C199.588 81.1071 206.058 84.3109 210.119 89.9474C173.003 70.5455 149.384 76.4504 144.744 78.5594C154.135 79.6611 173.347 78.9144 181.439 84.4642C153.422 80.8176 117.329 82.3554 102.988 103.866C110.236 100.186 114.461 97.909 122.39 93.3216C101.391 111.558 91.0578 121.703 81.8994 139.295C90.8199 133.88 95.0633 131.282 100.458 127.907C88.3033 152.523 81.5218 166.259 70.9332 187.799C80.0133 181.827 84.071 178.41 88.6479 173.881C88.6479 173.881 79.7906 215.637 70.9332 224.494C62.0759 233.351 61.2439 238.193 61.6542 246.426C65.1926 240.114 70.1382 232.995 77.2599 230.821C70.8723 249.621 69.3491 263.187 70.9332 281.434C79.0362 269.369 83.9259 270.046 101.219 279.747C125.682 293.47 102.143 289.446 130.404 342.17C131.053 330.308 132.782 323.66 137.152 311.802C141.84 324.645 141.384 334.171 143.479 345.544C146.739 335.957 148.739 330.754 155.289 324.455C168.68 339.589 169.795 349.8 167.52 369.163C194.25 337.447 200.066 321.252 193.248 295.352C207.154 294.038 213.103 299.913 214.759 322.768C217.305 317.947 220.966 311.472 216.024 289.026C216.617 294.357 219.879 297.135 226.569 303.788C222.14 288.361 220.667 280.969 220.242 269.624C226.095 278.507 228.769 281.954 232.895 286.495C230.654 269.778 227.916 260.631 220.242 244.739C227.283 249.644 231.556 256.854 237.113 262.454C234.015 244.489 229.071 231.44 220.242 216.48C231.411 222.988 235.996 226.777 241.331 233.773C240.042 221.725 235.41 208.454 225.725 187.8C226.131 187.005 198.227 185.691 184.391 183.16C170.555 180.629 166.255 168.398 184.391 170.085C202.527 171.772 201.602 173.165 208.011 171.772C214.42 170.379 217.29 165.867 218.977 159.54C220.664 153.214 226.781 150.904 231.63 147.309C234.086 142.411 234.925 139.208 239.14 134.234C242.039 132.654 242.898 133.178 248.419 133.39Z" stroke="black" stroke-width="3"/>
<path d="M112.185 197.079C116.405 159.414 121.472 141.753 131.587 121.581C130.819 135.304 126.819 142.56 128.213 159.54L139.179 152.792C133.213 165.804 133.557 173.1 139.179 186.112L147.192 178.52C147.192 178.52 166.171 195.186 154.792 219.36C153.375 205.057 150.996 201.224 144.662 189.487C140.691 197.418 138.355 201.354 134.117 208.045C134.255 195.455 133.108 188.376 128.213 175.146C120.797 184.069 117.918 189.917 112.185 197.079Z" fill="#9B9797" stroke="black" stroke-opacity="0.2" stroke-width="2"/>
<path d="M226.102 160.979C225.68 162.493 229.555 164.18 232.391 164.18C233.114 161.401 232.006 157.853 230.373 157.853C227.525 158.895 226.916 159.834 226.102 160.979Z" fill="#5E5858" stroke="black" stroke-width="2"/>
<path d="M155.628 108.927C156.763 108.953 159.352 108.784 165.67 113.072L171.153 117.29C174.949 119.399 173.684 118.555 178.745 120.664C176.519 117.662 176.509 119.722 174.106 115.603C179.998 118.673 178.323 117.29 188.868 124.46C194.139 126.107 202.024 134.234 202.024 134.234L208.269 140.91L210.8 142.669C206.255 142.288 203.208 138.801 200.336 136.343C195.616 140.488 195.619 140.214 191.82 142.597C185.493 144.284 182.963 145.549 176.717 143.513C170.812 140.56 168.882 137.979 167.016 132.125V132.125C167.016 127.506 167.016 126.242 168.026 123.689C165.681 123.257 164.47 123.099 161.827 122.424L155.628 121.159C158.246 120.226 160.308 119.911 169.125 121.159L157.104 115.254L150.145 113.989C153.253 112.588 156.062 112.453 164.064 113.989C160.786 112.281 158.94 111.181 155.628 108.927Z" fill="black"/>
<path d="M202.024 134.234C202.024 134.234 194.139 126.107 188.868 124.46M202.024 134.234L200.336 136.343M202.024 134.234L208.269 140.91L210.8 142.669C206.255 142.288 203.208 138.801 200.336 136.343M164.064 116.519L157.104 115.254M188.868 124.46C178.323 117.29 179.998 118.673 174.106 115.603C176.509 119.722 176.519 117.662 178.745 120.664M188.868 124.46L178.745 120.664M157.104 115.254L150.145 113.989C153.253 112.588 156.062 112.453 164.064 113.989C160.786 112.281 158.94 111.181 155.628 108.927C156.763 108.953 159.352 108.784 165.67 113.072L171.153 117.29C174.949 119.399 173.684 118.555 178.745 120.664M157.104 115.254L169.125 121.159M169.125 121.159C160.308 119.911 158.246 120.226 155.628 121.159L161.827 122.424C164.47 123.099 165.681 123.257 168.026 123.689M169.125 121.159C168.666 122.169 168.307 122.979 168.026 123.689M200.336 136.343C195.616 140.488 195.619 140.214 191.82 142.597C185.494 144.284 182.963 145.549 176.717 143.513C170.812 140.56 168.882 137.979 167.016 132.125C167.016 127.506 167.016 126.242 168.026 123.689" stroke="black" stroke-width="0.5"/>
<path d="M196.436 135.499C190.603 124.127 184.205 122.833 170.286 124.111C168.216 133.825 170.286 139.717 179.143 142.247C186.387 143.299 190.109 142.669 196.436 135.499Z" fill="#FFE2E2" stroke="black" stroke-width="2"/>
<path d="M187.634 131.068C185.493 128.256 182.541 126.569 176.385 127.413C174.105 128.256 174.057 130.256 174.833 134.317C176.385 137.973 180.162 138.053 184.143 138.379C188.022 137.567 189.289 134.317 187.634 131.068Z" fill="black" stroke="black" stroke-width="3"/>
<path d="M178.448 134.141C178.212 133.239 178.075 132.741 178.448 131.719C178.448 131.719 179.298 130.609 178.448 130.911C177.599 131.213 177.241 131.552 177.139 132.93C177.27 134.141 178.317 135.788 178.448 134.747C178.478 134.515 178.448 134.378 178.448 134.141Z" fill="#D9D9D9" stroke="#D9D9D9" stroke-width="2"/>
<path d="M202.867 208.888C202.867 202.561 187.683 190.33 180.513 184.003C201.18 186.955 204.132 186.955 224.799 188.642C235.765 210.575 237.874 218.589 239.561 229.555C233.235 222.385 222.928 217.492 216.785 213.105C228.173 230.82 233.235 247.269 235.344 258.657C232.813 256.127 223.534 245.582 217.207 241.365C220.721 248.883 223.11 252.708 226.486 261.61C229.689 271.374 230.419 276.268 231.126 282.699C226.345 276.795 223.112 272.154 218.894 265.406C204.774 254.267 199.192 249.594 196.962 240.943C192.76 224.782 202.867 215.214 202.867 208.888Z" fill="#625C5C" fill-opacity="0.61"/>
<path d="M132.43 120.737C129.396 137.899 127.535 147.561 128.634 158.697L140.022 151.527C136.39 158.18 134.961 162.071 134.961 170.507C134.961 178.942 137.491 180.208 139.179 186.113C142.177 183.48 143.969 181.817 147.614 178.099C157.343 194.82 161.695 204.208 153.941 221.12" stroke="#5B5757" stroke-width="4"/>
<path d="M228.351 103.974C233.928 107.369 235.842 110.26 239.435 114.043V115.227C236.018 117.248 234.102 117.492 230.684 115.227L228.351 112.266L226.601 115.227L207.932 102.789C197.384 99.6484 181.778 92.0564 172.077 92.8999H164.063C165.966 94.1647 166.209 94.9679 178.826 95.0088L185.763 97.1177L196.54 101.335C192.484 102.292 186.418 100.492 175.03 100.07C182.479 104.617 187.021 106.449 198.649 102.789L209.099 106.935C211.055 108.112 212.733 109.153 214.255 110.144C215.106 110.698 215.908 111.237 216.683 111.776C219.438 113.691 221.841 115.602 224.851 118.189H216.683C221.708 122.072 224.759 123.42 230.684 124.111L247.575 130.86C250.106 127.486 250.82 127.223 251.793 122.424L242.936 112.266C233.897 102.475 229.718 99.4235 223.1 96.2741L228.351 103.974Z" fill="#DDDBDB" stroke="#D4D4D5" stroke-width="2"/>
<path d="M216.364 99.2265L224.378 105.553L212.99 99.2265C208.607 97.3261 205.997 95.9259 202.445 95.8522L185.574 89.5256C190.862 88.6163 194.776 89.9214 204.682 93.2236L204.976 93.3216C215.099 96.6959 212.492 96.5968 216.364 99.2265Z" fill="#DDDBDB" stroke="#CACACB" stroke-width="2"/>
<path d="M105.015 216.48C108.527 162.904 114.155 153.007 129.056 125.304C118.217 152.382 113.879 165.794 111.77 198.693L127.798 176.339C133.143 189.177 133.924 195.95 133.703 210.081L144.669 191.101C150.152 199.958 153.105 207.128 155.635 221.89C151.417 235.809 150.574 237.918 145.083 248.535C142.975 230.82 140.683 228.79 142.975 210.997C138.602 221.333 137.466 221.68 129.056 225.759C128.923 213.086 128.007 209.142 123.995 197.922C115.239 205.081 110.675 207.329 105.015 216.48Z" fill="#DDDBDB"/>
<path d="M142.228 270.063L157.604 258.163L174.1 270.063L167.669 287.187L182.207 392.544L157.884 429.404L133.281 392.544L148.938 287.187L142.228 270.063Z" fill="#82580F"/>
<path d="M167.669 287.187L174.1 270.063L157.604 258.163L142.228 270.063L148.938 287.187M167.669 287.187H148.938M167.669 287.187L182.207 392.544L157.884 429.404L133.281 392.544L148.938 287.187" stroke="#2F2C2C" stroke-width="3"/>
<path d="M142.138 270.395C116.622 262.676 99.8165 254.904 75.9194 235.809" stroke="#2F2C2C" stroke-width="4"/>
<path d="M228.603 234.544C213.364 248.025 201.478 260.105 174.193 270.395" stroke="#2F2C2C" stroke-width="4"/>
</svg>
