<svg width="1352" height="1446" viewBox="0 0 1352 1446" fill="none" xmlns="http://www.w3.org/2000/svg">
	<path d="M917.167 765.444C917.167 884.573 809.649 981.146 677.019 981.146C544.389 981.146 435.434 883.135 435.434 764.006C435.434 644.878 542.951 548.305 675.581 548.305C808.211 548.305 917.167 646.316 917.167 765.444Z" fill="#18387c" />
	<path d="M806.449 573.323C853.351 600.754 886.649 635.858 910.103 681.09C930.877 727.092 934.462 777.744 920.313 825.342C906.164 872.941 875.054 914.881 831.716 944.784C788.378 974.688 735.183 990.918 680.221 991.006C625.26 991.094 571.539 975.036 527.231 945.273C482.922 915.511 450.45 873.672 434.753 826.122C419.057 778.571 420.994 727.911 440.271 681.845C459.548 635.779 506.066 587.172 553.351 564.838L549.755 581.376C505.929 605.829 471.746 642.995 453.553 686.471C435.36 729.947 433.531 777.759 448.346 822.637C463.16 867.514 493.807 907 535.624 935.09C577.442 963.179 628.142 978.335 680.014 978.252C731.885 978.168 782.09 962.851 822.992 934.628C863.894 906.406 893.254 866.824 906.608 821.901C919.962 776.978 916.579 729.174 896.973 685.759C870.552 630.417 825.311 599.247 810.145 588.512C794.98 577.777 796.902 571.699 792.779 565.557L806.449 573.323Z" fill="#676262" />
	<path d="M858.209 533.201C854.613 521.697 850.856 516.586 840.952 507.317C837.466 506.041 836.016 505.998 836.638 510.193C845.985 521.697 849.734 525.339 853.175 534.639C856.77 547.581 858.073 549.905 858.209 559.804C861.023 551.493 861.803 547.581 858.209 533.201Z" fill="white" stroke="white" />
	<path d="M590.019 451.361L556.945 472.931L571.325 452.799L586.424 435.543L620.937 403.188C615.621 421.872 610.331 431.071 593.614 443.452L605.838 437.7C595.885 469.25 588.132 485.49 569.168 511.038L580.672 505.286L577.077 523.98C572.153 545.742 569.696 558.251 561.978 577.187C560.063 599.423 553.663 608.903 544.003 626.798C552.493 619.999 555.352 616.051 557.664 608.823C557.356 637.288 552.172 649.966 543.284 672.815L539.689 702.294L544.003 698.699L551.912 695.823L565.573 698.699L600.805 715.236L619.499 735.368L631.722 777.07L646.102 749.748L661.201 798.64L675.581 777.07L701.465 803.674L709.374 835.31L730.225 782.822L725.192 735.368H733.821H750.358L767.614 741.839L772.647 735.368L776.242 720.988V698.699C770.255 689.644 765.883 682.749 757.548 672.815C767.578 680.181 776.258 684.846 783.432 695.104C784.87 710.203 788.483 729.824 791.341 751.905L784.87 741.839L780.556 733.93L776.242 735.368L780.556 756.219L779.118 782.822L770.49 751.905C764.738 747.591 761.143 746.872 756.829 743.277C747.018 741.912 743.567 742.235 736.697 743.277V745.434C742.853 769.372 744.268 782.398 736.697 803.674C726.619 827.832 717.631 842.514 700.027 862.632L700.746 839.624L693.556 815.897L675.581 788.574L656.887 819.492L643.945 761.971L631.722 815.897L619.499 794.326L609.433 751.905L607.276 736.806L600.805 725.302L565.573 705.889L547.598 703.013L534.656 713.079V683.6L539.689 656.277L546.879 631.112L533.218 637.583L518.838 653.401C520.817 644.502 522.896 639.842 529.623 632.55L543.284 613.137L557.664 570.716L567.73 528.294L537.532 555.617L590.019 451.361Z" fill="#DDDBDB" stroke="#CACACB" stroke-width="2" />
	<path d="M839.483 484.89L832.026 471.72C826.957 467.701 823.554 468.486 817.111 471.72C812.885 478.748 810.537 483.17 806.44 493.068L787.027 507.448C782.123 518.895 784.162 515.901 779.117 526.861C769.051 536.927 759.001 536.65 740.052 533.621C730.179 531.158 720.159 531.175 710.812 533.621C703.622 536.927 702.804 540.148 710.812 550.588C713.176 554.027 733.101 554.902 751.238 557.778C769.376 560.654 793.496 559.962 793.496 559.962C814.293 563.56 824.192 566.209 832.026 574.45C833.609 569.401 833.665 562.629 832.026 556.34L839.483 559.962L851.912 591.571C880.544 543.794 877.872 518.365 839.483 484.89Z" fill="#82580F" />
	<path d="M839.483 559.962L851.912 591.571C880.544 543.794 877.872 518.365 839.483 484.89L832.026 471.72C826.957 467.701 823.554 468.486 817.111 471.72C812.885 478.748 810.537 483.17 806.44 493.068L787.027 507.448C782.123 518.895 784.162 515.901 779.117 526.861C769.051 536.927 759.001 536.65 740.052 533.621C730.179 531.158 720.159 531.175 710.812 533.621C703.622 536.927 702.804 540.148 710.812 550.588C713.176 554.027 733.101 554.902 751.238 557.778C769.376 560.654 793.496 559.962 793.496 559.962C814.293 563.56 824.192 566.209 832.026 574.45C833.609 569.401 833.665 562.629 832.026 556.34L839.483 559.962ZM839.483 559.962C829.105 552.704 819.757 549.62 793.496 546.792H751.238C742.17 546.16 737.308 546.189 725.138 540.206" stroke="black" stroke-width="3" />
	<path d="M843.108 439.14C845.339 447.174 845.265 456.396 834.48 469.338C825.069 468.976 823.605 468.083 818.662 470.777C811.478 479.256 810.048 484.716 805.861 493.066C797.594 499.195 787.166 503.132 784.29 513.917C781.414 524.702 776.522 532.393 765.596 534.768C754.671 537.143 756.249 534.768 725.332 531.892C694.415 529.016 701.745 549.867 725.332 554.181C748.919 558.495 796.487 560.736 795.794 562.09C812.305 597.299 820.201 619.922 822.398 640.462C813.303 628.536 805.487 622.077 786.447 610.982C801.498 636.484 809.927 658.729 815.208 689.354C805.734 679.808 798.45 667.518 786.447 659.156C799.529 686.247 804.198 701.84 808.018 730.337C800.983 722.597 796.425 716.719 786.447 701.577C787.172 720.918 789.682 733.517 797.232 759.816C787.749 750.385 782.306 745.522 780.161 738.924C787.105 773.25 781.443 783.957 777.283 791.825L777.1 792.172C774.277 753.21 764.136 743.196 740.431 745.436C752.054 789.587 742.139 817.195 696.572 871.262C700.45 838.254 698.549 820.848 675.721 795.048C664.555 805.786 661.146 814.655 655.588 830.998C652.017 811.61 652.794 795.372 644.803 773.478C637.353 793.692 634.406 805.026 633.299 825.246C585.124 735.368 625.25 742.227 583.547 718.833C554.068 702.296 545.733 701.141 531.919 721.709C529.219 690.603 531.816 667.478 542.705 635.429C530.564 639.136 522.133 651.271 516.101 662.032C515.402 647.996 516.82 639.743 531.919 624.644C547.019 609.544 562.118 538.363 562.118 538.363C554.316 546.084 547.398 551.908 531.919 562.09C549.97 525.37 561.53 501.954 582.25 459.991C573.054 465.744 565.82 470.173 550.614 479.404C566.226 449.416 583.841 432.12 619.638 401.033C606.122 408.853 598.92 412.734 586.564 419.008C611.01 382.339 672.538 379.717 720.299 385.934C706.506 376.473 673.754 377.746 657.745 375.868C665.655 372.272 705.919 362.206 769.191 395.281C762.267 385.672 751.238 380.211 729.646 370.116C743.438 368.56 766.899 381.859 795.794 401.033C792.114 393.335 789.273 389.159 780.695 382.339C788.928 383.126 796.658 387.184 817.365 402.471C840.083 429.91 839.969 434.888 843.108 439.14Z" fill="white" stroke="black" stroke-width="3" />
	<path d="M602.242 577.909C609.437 513.703 618.073 483.596 635.316 449.207C634.007 472.602 627.189 484.971 629.564 513.918L648.259 502.413C638.088 524.595 638.676 537.033 648.259 559.215L661.92 546.273C661.92 546.273 694.273 574.682 674.874 615.893C672.46 591.509 668.403 584.975 657.606 564.967C650.837 578.488 646.854 585.198 639.63 596.603C639.865 575.142 637.909 563.074 629.564 540.521C616.923 555.731 612.016 565.701 602.242 577.909Z" fill="#9B9797" stroke="black" stroke-opacity="0.2" stroke-width="2" />
	<path d="M796.436 516.364C795.717 518.944 802.322 521.82 807.158 521.82C808.391 517.083 806.502 511.035 803.718 511.035C798.863 512.812 797.825 514.412 796.436 516.364Z" fill="#5E5858" stroke="black" stroke-width="2" />
	<path d="M676.299 427.633C678.234 427.676 682.647 427.389 693.418 434.699L702.765 441.889C709.236 445.484 707.079 444.046 715.707 447.641C711.911 442.524 711.896 446.034 707.798 439.013C717.843 444.246 714.988 441.889 732.963 454.112C741.948 456.92 755.39 470.773 755.39 470.773L766.037 482.153L770.351 485.153C762.603 484.504 757.409 478.558 752.514 474.368C744.467 481.434 744.472 480.968 737.996 485.029C727.211 487.905 722.897 490.062 712.249 486.591C702.183 481.558 698.894 477.157 695.712 467.178C695.712 459.304 695.712 457.149 697.433 452.798C693.436 452.061 691.373 451.791 686.866 450.641L676.299 448.484C680.762 446.893 684.277 446.357 699.307 448.484L678.816 438.418L666.952 436.261C672.25 433.873 677.039 433.644 690.679 436.261C685.091 433.35 681.945 431.475 676.299 427.633Z" fill="black" />
	<path d="M755.39 470.773C755.39 470.773 741.948 456.92 732.963 454.112M755.39 470.773L752.514 474.368M755.39 470.773L766.037 482.153L770.351 485.153C762.603 484.504 757.409 478.558 752.514 474.368M690.679 440.575L678.816 438.418M732.963 454.112C714.988 441.889 717.843 444.246 707.798 439.013C711.896 446.034 711.911 442.524 715.707 447.641M732.963 454.112L715.707 447.641M678.816 438.418L666.952 436.261C672.25 433.873 677.039 433.644 690.679 436.261C685.091 433.35 681.945 431.475 676.299 427.633C678.234 427.676 682.647 427.389 693.418 434.699L702.765 441.889C709.236 445.484 707.079 444.046 715.707 447.641M678.816 438.418L699.307 448.484M699.307 448.484C684.277 446.357 680.762 446.893 676.299 448.484L686.866 450.641C691.373 451.791 693.436 452.061 697.433 452.798M699.307 448.484C698.525 450.206 697.912 451.587 697.433 452.798M752.514 474.368C744.467 481.434 744.472 480.968 737.996 485.029C727.211 487.905 722.897 490.062 712.249 486.591C702.183 481.558 698.894 477.157 695.712 467.178C695.712 459.304 695.712 457.149 697.433 452.798" stroke="black" stroke-width="0.5" />
	<path d="M745.865 472.936C735.921 453.551 725.015 451.345 701.286 453.523C697.758 470.082 701.286 480.126 716.385 484.44C728.735 486.234 735.08 485.159 745.865 472.936Z" fill="#FFE2E2" stroke="black" stroke-width="2" />
	<path d="M730.861 465.38C727.211 460.587 722.178 457.711 711.684 459.149C707.798 460.587 707.716 463.995 709.039 470.919C711.684 477.151 718.122 477.287 724.91 477.843C731.523 476.458 733.682 470.919 730.861 465.38Z" fill="black" stroke="black" stroke-width="3" />
	<path d="M715.2 470.618C714.798 469.08 714.564 468.232 715.2 466.489C715.2 466.489 716.648 464.597 715.2 465.112C713.753 465.627 713.142 466.204 712.968 468.554C713.191 470.618 714.976 473.425 715.2 471.651C715.25 471.255 715.2 471.022 715.2 470.618Z" fill="#D9D9D9" stroke="#D9D9D9" stroke-width="2" />
	<path d="M756.827 598.039C756.827 587.253 730.943 566.402 718.72 555.617C753.951 560.65 758.984 560.65 794.215 563.526C812.909 600.915 816.504 614.576 819.38 633.27C808.595 621.047 791.026 612.707 780.554 605.229C799.967 635.427 808.595 663.468 812.19 682.881C807.876 678.567 792.058 660.592 781.273 653.402C787.264 666.218 791.336 672.739 797.091 687.914C802.551 704.559 803.795 712.902 805 723.864C796.85 713.8 791.339 705.889 784.149 694.385C760.078 675.398 750.563 667.431 746.761 652.683C739.599 625.134 756.827 608.824 756.827 598.039Z" fill="#625C5C" fill-opacity="0.61" />
	<path d="M636.753 447.77C631.58 477.026 628.408 493.496 630.282 512.48L649.695 500.257C643.502 511.599 641.067 518.232 641.067 532.612C641.067 546.992 645.381 549.149 648.257 559.215C653.368 554.727 656.423 551.893 662.637 545.554C679.221 574.06 686.641 590.062 673.422 618.893" stroke="#5B5757" stroke-width="4" />
	<path d="M800.271 419.192C809.779 424.979 813.042 429.909 819.167 436.356V438.375C813.341 441.821 810.074 442.236 804.249 438.375L800.271 433.327L797.287 438.375L765.463 417.172C747.481 411.818 720.878 398.876 704.341 400.314H690.68C693.923 402.47 694.337 403.839 715.845 403.909L727.672 407.504L746.043 414.694C739.129 416.325 728.787 413.256 709.374 412.537C722.072 420.289 729.815 423.411 749.638 417.172L767.452 424.24C770.787 426.246 773.647 428.02 776.241 429.709C777.693 430.655 779.06 431.574 780.381 432.492C785.077 435.757 789.174 439.014 794.304 443.424H780.381C788.947 450.043 794.149 452.341 804.249 453.52L833.043 465.024C837.357 459.272 838.574 458.825 840.233 450.644L825.134 433.327C809.726 416.636 802.602 411.435 791.32 406.066L800.271 419.192Z" fill="#DDDBDB" stroke="#D4D4D5" stroke-width="2" />
	<path d="M779.835 411.104L793.496 421.889L774.083 411.104C766.612 407.864 762.163 405.477 756.108 405.352L727.348 394.567C736.361 393.016 743.035 395.241 759.921 400.871L760.422 401.038C777.678 406.79 773.235 406.621 779.835 411.104Z" fill="#DDDBDB" stroke="#CACACB" stroke-width="2" />
	<path d="M590.02 610.983C596.008 519.651 605.601 502.781 631.003 455.555C612.525 501.715 605.131 524.579 601.536 580.662L628.858 542.554C637.971 564.44 639.302 575.986 638.925 600.075L657.619 567.72C666.966 582.819 671.999 595.042 676.313 620.207C669.123 643.934 667.685 647.529 658.325 665.628C654.73 635.43 650.823 631.969 654.73 601.636C647.276 619.257 645.339 619.848 631.003 626.802C630.776 605.198 629.215 598.475 622.375 579.347C607.449 591.552 599.669 595.385 590.02 610.983Z" fill="#DDDBDB" />
</svg>
